<svg width="395" height="396" viewBox="0 0 395 396" fill="none" xmlns="http://www.w3.org/2000/svg">
<path fill-rule="evenodd" clip-rule="evenodd" d="M256.003 188.173C262.63 188.507 268.616 192.133 271.723 197.72C274.176 202.653 274.176 208.427 271.723 213.36C269.976 219.453 269.403 225.827 270.043 232.133V232.12C270.95 238.787 276.123 244.213 282.99 245.707H291.683L286.59 258.72C282.07 268.72 276.55 278.307 270.31 287.187C262.843 298.387 252.323 309.587 253.203 321.933C254.95 342.013 261.536 349.747 270.31 360.56C273.816 365.187 278.643 369.827 283.456 374.067C272.83 380.253 260.43 389.08 249.203 394.613L220.896 395.387L220.91 395.4H174.563V349.947C178.39 340.267 193.39 343.133 201.03 345.533C207.39 347.693 214.403 347.333 220.483 344.507C226.59 341.707 231.23 336.653 233.39 330.547H233.403C240.79 311.947 220.03 292.147 200.643 299.693C192.923 301.813 178.843 304.587 174.563 295.613V245.56L227.443 245.573C242.296 242.093 241.416 224.027 237.923 212.973C235.39 207.48 235.923 201.147 239.336 196.133C243.056 190.867 249.376 187.84 256.003 188.173ZM250.43 181.8L250.656 181.973L250.31 182.027L250.43 181.827V181.8Z" fill="#98D5C6"/>
<path fill-rule="evenodd" clip-rule="evenodd" d="M204.19 346.24L204.603 346.333L204.59 346.373H204.296L204.19 346.24ZM102.323 251.827L102.176 252.147L102.123 251.987L102.323 251.827ZM11.4564 245.8H53.4964C58.083 245.827 62.1897 248.493 63.883 252.573C67.4697 261.96 59.563 270.547 61.2697 280.053C62.2297 288.48 67.7097 295.813 75.7097 299.467C83.723 303.107 93.1363 302.533 100.603 297.947C110.47 291.507 114.683 279.56 110.87 268.733C107.99 263.04 107.896 256.453 110.59 250.693C112.643 247.72 116.136 245.947 119.87 246H167.856V296.2C171.496 310.293 190.43 309.493 201.936 306.2C207.763 303.68 214.496 304.187 219.856 307.52C225.19 310.84 228.403 316.547 228.323 322.64C228.27 328.747 224.936 334.387 219.523 337.613C214.11 340.84 207.35 341.2 201.59 338.56C195.15 336.907 188.443 336.387 181.83 337.027C174.83 337.827 169.15 342.773 167.603 349.333V395.88C167.11 395.533 166.51 395.36 165.896 395.347H133.75L129.47 380.987C125.096 368.627 122.03 353.547 107.55 346.6C105.75 345.733 103.896 345.053 102.003 344.52L98.7497 343.88L60.203 345.44C34.3497 346.213 32.5897 336.947 31.7097 331.147C30.843 324.973 31.283 318.787 31.283 316.08C31.283 313.373 28.6564 311.84 26.4564 309.133C24.2697 306.427 28.203 299.48 28.203 299.48C19.003 297.547 17.6964 293.68 17.243 292.133C17.243 290.587 18.563 286.72 19.443 282.467C20.7497 278.227 19.883 276.68 11.5497 275.133L5.7097 273.32C-5.2903 267.427 2.40303 259.973 5.7097 253.56L6.22967 252.8C8.45634 249.76 10.6697 246.933 10.6697 246.933L11.4564 245.8Z" fill="#035668"/>
<path fill-rule="evenodd" clip-rule="evenodd" d="M152.816 94.1201H165.976L166.563 94.1601V135.467C162.43 145.24 146.99 142.24 139.016 139.893C125.536 135.347 110.75 142.027 105.883 154.867C98.2697 173.84 119.79 193.12 139.456 185.707C147.43 183.6 162.03 180.787 166.563 189.84L166.536 239.693H118.75C112.643 239.693 106.95 242.667 103.616 247.587C101.55 250.867 100.523 254.64 100.656 258.48C100.723 261.347 101.136 264.24 101.896 267.013C103.723 271.013 104.496 275.387 104.216 279.747C103.483 285.813 99.5497 291.107 93.7897 293.773C88.0164 296.453 81.2297 296.107 75.7897 292.867V292.893C57.0964 280.96 77.2697 263.587 68.403 248.573C68.403 248.573 68.403 248.573 68.4164 248.573C65.243 243.053 59.1764 239.64 52.5764 239.693H15.363L16.1497 238.613C18.6697 235.24 21.2964 231.96 23.043 230.413C26.123 227.32 28.3097 222.293 28.7497 218.053C29.1897 213.8 26.123 205.707 26.123 200.293C26.3364 197.2 27.1097 194.027 28.0964 190.88L30.083 185.387C31.7364 170.4 38.0431 154.72 48.2564 139.747L53.2163 132.987C65.2163 118.507 81.963 106.96 101.963 100.68C117.75 96.4401 135.723 94.5068 152.816 94.1201Z" fill="#BAE4F2"/>
<path fill-rule="evenodd" clip-rule="evenodd" d="M247.7 128.672L197.82 61.8053C179.087 70.3253 166.14 86.0853 166.14 86.0853C210.487 120.739 217.634 169.339 217.634 169.339C217.634 169.339 266.194 161.952 312.314 194.205C312.314 194.205 323.594 177.205 326.274 156.805L247.7 128.672ZM168.847 0.245254L306.967 48.5519L393.594 166.472C395.994 169.739 392.754 174.099 388.94 172.739L365.127 164.219L348.634 186.512C352.58 190.699 353.127 197.192 349.607 201.939C346.54 206.099 341.274 207.672 336.554 206.299L335.274 208.019C338.86 215.352 335.34 229.139 326.007 241.765C324.447 243.872 322.807 245.845 321.114 247.645C321.114 247.645 303.154 243.792 294.754 228.152C295.98 226.005 297.394 223.859 298.954 221.752C308.274 209.139 320.42 201.712 328.487 203.005L329.767 201.285C327.074 197.165 327.034 191.672 330.114 187.512C333.62 182.765 339.994 181.379 345.14 183.925L360.86 162.672L296.86 76.5252C298.02 74.2586 296.087 70.3652 292.3 67.5652C288.274 64.5919 283.714 63.9519 282.087 66.1519C280.474 68.3386 282.407 72.5253 286.42 75.4986C288.527 77.0586 290.794 77.9653 292.7 78.1653L353.527 160.045L251.54 123.525L164.26 6.55193C161.807 3.2986 165.02 -1.08808 168.847 0.245254Z" fill="#035668"/>
</svg>
